<?xml version="1.0" encoding="UTF-8" standalone="no"?>
<!-- Created with Inkscape (http://www.inkscape.org/) -->

<svg
   xmlns:dc="http://purl.org/dc/elements/1.1/"
   xmlns:cc="http://creativecommons.org/ns#"
   xmlns:rdf="http://www.w3.org/1999/02/22-rdf-syntax-ns#"
   xmlns:svg="http://www.w3.org/2000/svg"
   xmlns="http://www.w3.org/2000/svg"
   xmlns:xlink="http://www.w3.org/1999/xlink"
   xmlns:sodipodi="http://sodipodi.sourceforge.net/DTD/sodipodi-0.dtd"
   xmlns:inkscape="http://www.inkscape.org/namespaces/inkscape"
   width="1600"
   height="2400"
   id="svg2"
   version="1.1"
   inkscape:version="0.48.2 r9819"
   sodipodi:docname="couverture.svg">
  <title
     id="title6446">Couverture pour l’epub « Exemple simple, documenté, et valide d’ePub 3.0 »</title>
  <defs
     id="defs4">
    <linearGradient
       id="linearGradient6318">
      <stop
         style="stop-color:#e2ac96;stop-opacity:1;"
         offset="0"
         id="stop6320" />
      <stop
         style="stop-color:#1c26bd;stop-opacity:1;"
         offset="1"
         id="stop6322" />
    </linearGradient>
    <color-profile
       name="Adobe-RGB--1998-"
       xlink:href="/System/Library/ColorSync/Profiles/AdobeRGB1998.icc"
       id="color-profile2985" />
    <linearGradient
       inkscape:collect="always"
       xlink:href="#linearGradient6318"
       id="linearGradient3955"
       gradientUnits="userSpaceOnUse"
       gradientTransform="translate(-399.46029,-2252.8284)"
       x1="1145.8066"
       y1="1829.9187"
       x2="3260.5039"
       y2="1829.9187" />
    <linearGradient
       inkscape:collect="always"
       xlink:href="#linearGradient6318"
       id="linearGradient4328"
       gradientUnits="userSpaceOnUse"
       gradientTransform="translate(-888.34917,-2572.2728)"
       x1="1154.14"
       y1="1832.6965"
       x2="3293.8372"
       y2="1835.4742" />
    <linearGradient
       inkscape:collect="always"
       xlink:href="#linearGradient6318"
       id="linearGradient4336"
       gradientUnits="userSpaceOnUse"
       gradientTransform="translate(-888.34917,-2572.2728)"
       x1="1154.14"
       y1="1832.6965"
       x2="3293.8372"
       y2="1835.4742" />
  </defs>
  <sodipodi:namedview
     id="base"
     pagecolor="#ffffff"
     bordercolor="#666666"
     borderopacity="1.0"
     inkscape:pageopacity="0.0"
     inkscape:pageshadow="2"
     inkscape:zoom="0.36"
     inkscape:cx="1024.1404"
     inkscape:cy="1177.2904"
     inkscape:document-units="px"
     inkscape:current-layer="layer1"
     showgrid="false"
     fit-margin-top="0"
     fit-margin-left="0"
     fit-margin-right="0"
     fit-margin-bottom="0"
     inkscape:showpageshadow="true"
     width="1600px"
     inkscape:window-width="1808"
     inkscape:window-height="1135"
     inkscape:window-x="4"
     inkscape:window-y="0"
     inkscape:window-maximized="0" />
  <metadata
     id="metadata7">
    <rdf:RDF>
      <cc:Work
         rdf:about="">
        <dc:format>image/svg+xml</dc:format>
        <dc:type
           rdf:resource="http://purl.org/dc/dcmitype/StillImage" />
        <dc:title>Couverture pour l’epub « Exemple simple, documenté, et valide d’ePub 3.0 »</dc:title>
        <dc:date>2013-10-03</dc:date>
        <dc:creator>
          <cc:Agent>
            <dc:title>Damien Clauzel</dc:title>
          </cc:Agent>
        </dc:creator>
        <dc:rights>
          <cc:Agent>
            <dc:title />
          </cc:Agent>
        </dc:rights>
        <dc:language>fr-FR</dc:language>
        <cc:license
           rdf:resource="https://creativecommons.org/licenses/by-sa/3.0/fr/" />
        <dc:subject>
          <rdf:Bag>
            <rdf:li>ePub</rdf:li>
            <rdf:li>couverture</rdf:li>
          </rdf:Bag>
        </dc:subject>
      </cc:Work>
    </rdf:RDF>
  </metadata>
  <g
     inkscape:label="Calque 1"
     inkscape:groupmode="layer"
     id="layer1"
     transform="translate(0,1347.638)">
    <flowRoot
       xml:space="preserve"
       id="flowRoot3041"
       style="fill:#fff8dc;-inkscape-font-specification:DejaVu Sans Bold;font-family:DejaVu Sans;font-weight:bold;font-style:normal;font-stretch:normal;font-variant:normal;font-size:40px;text-anchor:middle;text-align:center;writing-mode:lr;line-height:100%;fill-opacity:1;stroke-linejoin:round;stroke:none;stroke-opacity:1;stroke-width:1;stroke-miterlimit:4;stroke-dasharray:none;fill-rule:nonzero;opacity:1"><flowRegion
         id="flowRegion3043"><rect
           id="rect3045"
           width="1162.8572"
           height="568.57141"
           x="242.85715"
           y="245.71428" /></flowRegion><flowPara
         id="flowPara3047" /></flowRoot>    <flowRoot
       xml:space="preserve"
       id="flowRoot3051"
       style="fill:#fff8dc;-inkscape-font-specification:DejaVu Sans Bold;font-family:DejaVu Sans;font-weight:bold;font-style:normal;font-stretch:normal;font-variant:normal;font-size:40px;text-anchor:middle;text-align:center;writing-mode:lr;line-height:100%;fill-opacity:1;stroke-linejoin:round;stroke:none;stroke-opacity:1;stroke-width:1;stroke-miterlimit:4;stroke-dasharray:none;fill-rule:nonzero;opacity:1"><flowRegion
         id="flowRegion3053"><rect
           id="rect3055"
           width="394.28571"
           height="254.28572"
           x="728.57141"
           y="525.71429" /></flowRegion><flowPara
         id="flowPara3057" /></flowRoot>    <text
       xml:space="preserve"
       style="font-size:40px;font-style:normal;font-variant:normal;font-weight:normal;font-stretch:normal;text-align:center;line-height:100%;writing-mode:lr-tb;text-anchor:middle;fill:url(#linearGradient4336);fill-opacity:1;fill-rule:nonzero;stroke:none;font-family:Papyrus;-inkscape-font-specification:Papyrus"
       id="text6340"
       sodipodi:linespacing="100%"><textPath
         xlink:href="#path4023"
         id="textPath4352"><tspan
   style="text-align:start;text-anchor:start;fill:url(#linearGradient4336)"
   id="tspan6342"><tspan
     id="tspan6344"
     style="font-size:100px;font-weight:bold;text-align:start;line-height:100%;text-anchor:start;fill:url(#linearGradient4336);font-family:Papyrus;-inkscape-font-specification:Papyrus Bold"
     y="-719.91766"
     x="250.76808">Exemple simple, documenté, et valide d’ePub 3.0</tspan></tspan></textPath></text>
    <g
       id="g6424"
       transform="matrix(2.6943801,0,0,2.6943801,1057.0243,-908.07772)">
      <g
         id="g6410">
        <path
           id="path6412"
           d="m 31.479,214.286 c 3.275,0 5.592,-1.34 7.529,-3.372 l 2.211,1.989 c -2.396,2.678 -5.307,4.479 -9.833,4.479 -6.563,0 -11.914,-5.037 -11.914,-12.473 0,-6.926 4.849,-12.471 11.456,-12.471 7.059,0 11.127,5.635 11.127,12.656 0,0.325 0,0.693 -0.044,1.108 H 23.07 c 0.508,5.177 4.205,8.084 8.409,8.084 z m 6.979,-10.716 c -0.372,-4.341 -2.867,-8.13 -7.629,-8.13 -4.148,0 -7.294,3.468 -7.759,8.13 h 15.388 z"
           inkscape:connector-curvature="0"
           style="fill:#85b916" />
        <path
           id="path6414"
           d="m 60.391,205.419 h -7.852 v 11.41 h -3.647 v -32.335 h 12.105 c 7.294,0 12.1,3.882 12.1,10.303 0,7.021 -5.822,10.622 -12.706,10.622 z m 0.321,-17.552 h -8.173 v 14.224 h 7.994 c 5.355,0 8.866,-2.861 8.866,-7.158 0,-4.663 -3.461,-7.066 -8.687,-7.066 z m 45.45,15.146 c 0,9.425 -5.399,14.322 -13.486,14.322 -7.988,0 -13.437,-4.896 -13.437,-14.042 v -18.799 h 3.646 v 18.569 c 0,6.973 3.697,10.901 9.889,10.901 5.957,0 9.747,-3.606 9.747,-10.671 v -18.799 h 3.641 v 18.519 z m 32.569,-10.434 c 0,4.248 -2.588,6.419 -5.127,7.53 3.833,1.151 6.923,3.368 6.923,7.852 0,5.584 -4.663,8.868 -11.728,8.868 h -14.595 v -32.335 h 13.994 c 6.372,-0.001 10.533,3.138 10.533,8.085 z m -3.696,0.508 c 0,-3.235 -2.545,-5.313 -7.158,-5.313 h -10.074 v 11.134 h 9.795 c 4.384,0 7.437,-1.988 7.437,-5.821 z m 1.802,14.642 c 0,-3.558 -2.96,-5.589 -8.595,-5.589 h -10.439 v 11.406 h 11.09 c 4.897,-0.001 7.944,-2.167 7.944,-5.817 z"
           inkscape:connector-curvature="0"
           style="fill:#41291d" />
      </g>
      <path
         id="path6416"
         d="M 79.998,130.406 30.682,81.086 79.998,31.773 96.438,48.21 63.558,81.086 79.997,97.526 129.313,48.213 86.353,5.253 c -3.508,-3.511 -9.198,-3.511 -12.709,0 L 4.161,74.736 c -3.508,3.508 -3.508,9.198 0,12.709 l 69.484,69.481 c 3.511,3.511 9.201,3.511 12.709,0 l 69.484,-69.481 c 3.508,-3.511 3.508,-9.201 0,-12.709 L 145.751,64.652 79.998,130.406 z"
         inkscape:connector-curvature="0"
         style="fill:#85b916" />
    </g>
    <text
       xml:space="preserve"
       style="font-size:100px;font-style:normal;font-variant:normal;font-weight:500;font-stretch:normal;text-align:center;line-height:100%;writing-mode:lr-tb;text-anchor:middle;fill:#000000;fill-opacity:1;fill-rule:nonzero;stroke:none;font-family:Futura;-inkscape-font-specification:Futura Medium"
       x="1142.75"
       y="-1123.5162"
       id="text3927"
       sodipodi:linespacing="100%"><tspan
         sodipodi:role="line"
         x="1142.75"
         y="-1123.5162"
         id="tspan3929"><tspan
           x="1142.75"
           y="-1123.5162"
           style="font-size:80px;font-weight:bold;line-height:100%;fill:#000000;font-family:DejaVu Sans;-inkscape-font-specification:DejaVu Sans Bold"
           id="tspan3931">Damien Clauzel</tspan></tspan></text>
    <text
       xml:space="preserve"
       style="font-size:50px;font-style:normal;font-variant:normal;font-weight:500;font-stretch:normal;text-align:center;line-height:100%;writing-mode:lr-tb;text-anchor:middle;fill:#000000;fill-opacity:1;fill-rule:nonzero;stroke:none;font-family:Futura;-inkscape-font-specification:Futura Medium"
       x="639.30615"
       y="919.24231"
       id="text3933"
       sodipodi:linespacing="100%"><tspan
         sodipodi:role="line"
         x="639.30615"
         y="919.24231"
         id="tspan3935"><tspan
           x="639.30615"
           y="919.24231"
           style="font-weight:normal;line-height:100%;fill:#000000;font-family:DejaVu Sans;-inkscape-font-specification:DejaVu Sans"
           id="tspan3937">Oui, cette couverture est moche : j’assume.</tspan></tspan></text>
    <flowRoot
       xml:space="preserve"
       id="flowRoot4013"
       style="fill:#000000;-inkscape-font-specification:DejaVu Sans;font-family:DejaVu Sans;font-weight:normal;font-style:normal;font-stretch:normal;font-variant:normal;font-size:50px;text-anchor:middle;text-align:center;writing-mode:lr;line-height:100%;fill-opacity:1;stroke-linejoin:miter;stroke:none;stroke-opacity:1;stroke-width:10;stroke-miterlimit:4;stroke-dasharray:none;fill-rule:nonzero;opacity:1;stroke-linecap:round"><flowRegion
         id="flowRegion4015"><rect
           id="rect4017"
           width="152.77777"
           height="172.22223"
           x="736.11108"
           y="769.44446" /></flowRegion><flowPara
         id="flowPara4019"></flowPara></flowRoot>    <path
       style="fill:none;stroke:#000041;stroke-width:12;stroke-linecap:round;stroke-linejoin:miter;stroke-miterlimit:4;stroke-opacity:1;stroke-dasharray:none;marker-start:none"
       d="m 36.111106,-886.5269 c 66.351084,276.32643 -16.785787,502.11054 217.637394,576.10444 234.42318,73.9939 244.03414,-200.52311 443.47374,-64.99323 199.4396,135.52988 -180.159,365.330302 49.84817,618.74245 230.00716,253.41216 305.38619,45.56171 488.25159,146.59779 182.8653,101.03609 127.4921,367.65702 259.1225,406.88196"
       id="path4023"
       inkscape:connector-curvature="0"
       sodipodi:nodetypes="czzzzc" />
  </g>
</svg>
